<svg width="64" height="64" viewBox="0 0 64 64" fill="none" xmlns="http://www.w3.org/2000/svg">
<circle cx="32" cy="32" r="32" fill="white" fill-opacity="0.1"/>
<path d="M50.7379 45.0653C47.2801 35.3804 43.7706 25.7154 40.2651 16.0465C39.7564 14.6521 38.7906 13.9729 37.2326 14.0008C33.7271 14.0648 30.2176 14.0528 26.7122 14.0048C25.1621 13.9848 24.2519 14.692 23.7392 16.1144C20.2655 25.7194 16.7601 35.3085 13.3062 44.9215C12.408 47.4186 13.5209 48.9369 16.1838 48.9689C19.2958 49.0088 22.4038 48.9769 25.5158 48.9769C26.4498 48.9769 27.4077 49.0208 27.9045 47.974C28.3695 47.0071 27.7415 46.3359 27.2606 45.6287C25.4324 42.9478 24.3275 40.0071 24.0373 36.7548C23.9101 35.3045 24.5302 34.6213 25.9411 34.6173C27.9244 34.6093 29.9116 34.6173 31.8949 34.6173C31.8949 34.6133 31.8949 34.6093 31.8949 34.6093C33.8145 34.6093 35.7342 34.5813 37.6499 34.6173C39.7127 34.6532 40.2294 35.2685 39.9273 37.3541C39.4822 40.4266 38.3613 43.2354 36.6205 45.8085C35.3725 47.6584 35.9687 48.9249 38.1308 48.9569C41.4376 49.0128 44.7483 49.0208 48.0551 48.9449C50.4477 48.889 51.5447 47.3228 50.7379 45.0653ZM34.2915 25.4717C33.3456 26.6064 32.5904 27.7651 32.2526 29.2514C31.9386 30.6378 31.0642 30.6698 30.0905 29.7348C28.3973 28.1007 28.1986 25.0802 29.7646 22.9985C30.6429 21.8319 31.4617 20.7251 31.7558 19.2029C31.9942 17.9843 32.9362 17.8684 33.8145 18.7634C34.7803 19.7383 35.3129 20.9249 35.2931 22.4432C35.3765 23.51 35.0268 24.5967 34.2915 25.4717Z" fill="white"/>
</svg>
