<svg width="257" height="69" viewBox="0 0 257 69" fill="none" xmlns="http://www.w3.org/2000/svg">
<path d="M44.3949 57.0602C45.3309 57.0602 46.0629 57.3182 46.5909 57.8342C47.1189 58.3502 47.3829 59.0822 47.3829 60.0302C47.3829 60.9782 47.1189 61.7102 46.5909 62.2262C46.0629 62.7422 45.3309 63.0002 44.3949 63.0002H42.4779V57.0602H44.3949ZM44.4669 62.3252C45.1449 62.3252 45.6729 62.1242 46.0509 61.7222C46.4349 61.3142 46.6269 60.7502 46.6269 60.0302C46.6269 59.3102 46.4349 58.7492 46.0509 58.3472C45.6729 57.9392 45.1449 57.7352 44.4669 57.7352H43.1979V62.3252H44.4669ZM53.8062 60.5342H52.3842V63.0002H51.6642V57.0602H53.9142C54.5202 57.0602 55.0062 57.2162 55.3722 57.5282C55.7382 57.8402 55.9212 58.2632 55.9212 58.7972C55.9212 59.2172 55.8042 59.5712 55.5702 59.8592C55.3362 60.1472 55.0152 60.3452 54.6072 60.4532L56.2812 63.0002H55.4262L53.8062 60.5342ZM52.3842 59.8592H53.9052C54.7452 59.8592 55.1652 59.5052 55.1652 58.7972C55.1652 58.0892 54.7452 57.7352 53.9052 57.7352H52.3842V59.8592ZM62.6908 56.9702C63.2488 56.9702 63.7348 57.0962 64.1488 57.3482C64.5628 57.5942 64.8808 57.9482 65.1028 58.4102C65.3308 58.8662 65.4448 59.4062 65.4448 60.0302C65.4448 60.6542 65.3308 61.1972 65.1028 61.6592C64.8808 62.1152 64.5628 62.4692 64.1488 62.7212C63.7348 62.9672 63.2488 63.0902 62.6908 63.0902C62.1328 63.0902 61.6468 62.9672 61.2328 62.7212C60.8188 62.4692 60.4978 62.1152 60.2698 61.6592C60.0478 61.1972 59.9368 60.6542 59.9368 60.0302C59.9368 59.4062 60.0478 58.8662 60.2698 58.4102C60.4978 57.9482 60.8188 57.5942 61.2328 57.3482C61.6468 57.0962 62.1328 56.9702 62.6908 56.9702ZM62.6908 57.6452C62.0728 57.6452 61.5838 57.8582 61.2238 58.2842C60.8698 58.7042 60.6928 59.2862 60.6928 60.0302C60.6928 60.7742 60.8698 61.3592 61.2238 61.7852C61.5838 62.2052 62.0728 62.4152 62.6908 62.4152C63.3088 62.4152 63.7948 62.2052 64.1488 61.7852C64.5088 61.3592 64.6888 60.7742 64.6888 60.0302C64.6888 59.2862 64.5088 58.7042 64.1488 58.2842C63.7948 57.8582 63.3088 57.6452 62.6908 57.6452ZM74.3912 63.0002H73.5002L71.0162 59.0222L70.3862 57.8522H70.3772L70.4132 58.8062V63.0002H69.7292V57.0602H70.6202L73.0952 61.0202L73.7342 62.2082H73.7432L73.7072 61.2542V57.0602H74.3912V63.0002ZM83.3406 62.3252V63.0002H79.0386V57.0602H83.2056V57.7352H79.7586V59.6522H82.4406V60.3272H79.7586V62.3252H83.3406ZM89.3949 57.0602C90.3309 57.0602 91.0629 57.3182 91.5909 57.8342C92.1189 58.3502 92.3829 59.0822 92.3829 60.0302C92.3829 60.9782 92.1189 61.7102 91.5909 62.2262C91.0629 62.7422 90.3309 63.0002 89.3949 63.0002H87.4779V57.0602H89.3949ZM89.4669 62.3252C90.1449 62.3252 90.6729 62.1242 91.0509 61.7222C91.4349 61.3142 91.6269 60.7502 91.6269 60.0302C91.6269 59.3102 91.4349 58.7492 91.0509 58.3472C90.6729 57.9392 90.1449 57.7352 89.4669 57.7352H88.1979V62.3252H89.4669ZM100.966 62.3252V63.0002H96.6642V57.0602H100.831V57.7352H97.3842V59.6522H100.066V60.3272H97.3842V62.3252H100.966ZM109.225 62.3252V63.0002H105.103V57.0602H105.823V62.3252H109.225ZM113.902 63.0002H113.182V57.0602H113.902V63.0002ZM120.903 63.0002H120.084L117.825 57.0602H118.599L120.111 61.1642L120.489 62.3432L120.867 61.1732L122.379 57.0602H123.153L120.903 63.0002ZM131.383 62.3252V63.0002H127.081V57.0602H131.248V57.7352H127.801V59.6522H130.483V60.3272H127.801V62.3252H131.383ZM137.663 60.5342H136.241V63.0002H135.521V57.0602H137.771C138.377 57.0602 138.863 57.2162 139.229 57.5282C139.595 57.8402 139.778 58.2632 139.778 58.7972C139.778 59.2172 139.661 59.5712 139.427 59.8592C139.193 60.1472 138.872 60.3452 138.464 60.4532L140.138 63.0002H139.283L137.663 60.5342ZM136.241 59.8592H137.762C138.602 59.8592 139.022 59.5052 139.022 58.7972C139.022 58.0892 138.602 57.7352 137.762 57.7352H136.241V59.8592ZM148.508 62.3252V63.0002H144.206V57.0602H148.373V57.7352H144.926V59.6522H147.608V60.3272H144.926V62.3252H148.508ZM154.562 57.0602C155.498 57.0602 156.23 57.3182 156.758 57.8342C157.286 58.3502 157.55 59.0822 157.55 60.0302C157.55 60.9782 157.286 61.7102 156.758 62.2262C156.23 62.7422 155.498 63.0002 154.562 63.0002H152.645V57.0602H154.562ZM154.634 62.3252C155.312 62.3252 155.84 62.1242 156.218 61.7222C156.602 61.3142 156.794 60.7502 156.794 60.0302C156.794 59.3102 156.602 58.7492 156.218 58.3472C155.84 57.9392 155.312 57.7352 154.634 57.7352H153.365V62.3252H154.634ZM172.387 61.4792C172.201 61.9832 171.895 62.3792 171.469 62.6672C171.043 62.9492 170.551 63.0902 169.993 63.0902C169.435 63.0902 168.949 62.9672 168.535 62.7212C168.121 62.4692 167.8 62.1152 167.572 61.6592C167.35 61.1972 167.239 60.6542 167.239 60.0302C167.239 59.4122 167.35 58.8722 167.572 58.4102C167.8 57.9482 168.121 57.5942 168.535 57.3482C168.949 57.0962 169.429 56.9702 169.975 56.9702C170.545 56.9702 171.022 57.0872 171.406 57.3212C171.796 57.5552 172.087 57.9002 172.279 58.3562L171.568 58.6892C171.436 58.3412 171.244 58.0802 170.992 57.9062C170.74 57.7322 170.419 57.6452 170.029 57.6452C169.621 57.6452 169.264 57.7412 168.958 57.9332C168.652 58.1192 168.415 58.3922 168.247 58.7522C168.079 59.1122 167.995 59.5382 167.995 60.0302C167.995 60.7742 168.172 61.3592 168.526 61.7852C168.886 62.2052 169.375 62.4152 169.993 62.4152C170.395 62.4152 170.743 62.3132 171.037 62.1092C171.331 61.9052 171.541 61.6052 171.667 61.2092L172.387 61.4792ZM178.863 56.9702C179.421 56.9702 179.907 57.0962 180.321 57.3482C180.735 57.5942 181.053 57.9482 181.275 58.4102C181.503 58.8662 181.617 59.4062 181.617 60.0302C181.617 60.6542 181.503 61.1972 181.275 61.6592C181.053 62.1152 180.735 62.4692 180.321 62.7212C179.907 62.9672 179.421 63.0902 178.863 63.0902C178.305 63.0902 177.819 62.9672 177.405 62.7212C176.991 62.4692 176.67 62.1152 176.442 61.6592C176.22 61.1972 176.109 60.6542 176.109 60.0302C176.109 59.4062 176.22 58.8662 176.442 58.4102C176.67 57.9482 176.991 57.5942 177.405 57.3482C177.819 57.0962 178.305 56.9702 178.863 56.9702ZM178.863 57.6452C178.245 57.6452 177.756 57.8582 177.396 58.2842C177.042 58.7042 176.865 59.2862 176.865 60.0302C176.865 60.7742 177.042 61.3592 177.396 61.7852C177.756 62.2052 178.245 62.4152 178.863 62.4152C179.481 62.4152 179.967 62.2052 180.321 61.7852C180.681 61.3592 180.861 60.7742 180.861 60.0302C180.861 59.2862 180.681 58.7042 180.321 58.2842C179.967 57.8582 179.481 57.6452 178.863 57.6452ZM186.621 57.7352V59.6522H189.303V60.3272H186.621V63.0002H185.901V57.0602H190.059V57.7352H186.621ZM194.814 57.7352V59.6522H197.496V60.3272H194.814V63.0002H194.094V57.0602H198.252V57.7352H194.814ZM206.59 62.3252V63.0002H202.288V57.0602H206.455V57.7352H203.008V59.6522H205.69V60.3272H203.008V62.3252H206.59ZM215.029 62.3252V63.0002H210.727V57.0602H214.894V57.7352H211.447V59.6522H214.129V60.3272H211.447V62.3252H215.029Z" fill="white"/>
<path d="M60.4626 37L48.1146 37L48.1146 35.992L51.5166 35.614L47.6526 25.954L38.2026 25.954L34.8426 34.9L38.5806 35.992L38.5806 37L29.8026 37L29.8026 35.992L32.9946 34.9L43.1586 8.94401L46.0986 8.94401L57.2286 35.614L60.4626 35.992L60.4626 37ZM47.0226 24.4L42.9066 14.194L38.7906 24.4L47.0226 24.4ZM73.4636 37L60.5696 37L60.5696 35.992L64.2236 35.614L64.2236 10.33L60.5696 9.95201L60.5696 8.94401L73.4636 8.94401L73.4636 9.95201L69.8096 10.33L69.8096 35.614L73.4636 35.992L73.4636 37ZM85.3095 22.342L86.7375 22.342C91.2175 22.342 93.4575 20.2 93.4575 15.916C93.4575 13.844 93.0235 12.346 92.1555 11.422C91.2875 10.47 89.9155 9.99401 88.0395 9.99401C86.8355 9.99401 85.9255 10.05 85.3095 10.162L85.3095 22.342ZM84.5955 8.86001L89.2995 8.73401C95.9635 8.73401 99.2955 11.128 99.2955 15.916C99.2955 18.044 98.5395 19.78 97.0275 21.124C95.5155 22.468 93.5695 23.14 91.1895 23.14L90.2235 23.14C93.4155 23.56 95.5995 24.526 96.7755 26.038C97.9795 27.55 98.5815 29.846 98.5815 32.926C98.5815 34.83 98.9735 35.992 99.7575 36.412C100.038 36.58 100.444 36.664 100.976 36.664C101.536 36.664 102.292 36.44 103.244 35.992L103.286 37C101.774 37.644 100.234 37.966 98.6655 37.966C95.5295 37.966 93.6395 36.79 92.9955 34.438C92.7715 33.458 92.6595 32.24 92.6595 30.784C92.6595 29.3 92.5615 28.166 92.3655 27.382C92.1975 26.57 91.9315 25.912 91.5675 25.408C90.7555 24.176 89.2295 23.56 86.9895 23.56L85.3095 23.56L85.3095 35.614L88.5015 35.992L88.5015 37L76.6575 37L76.6575 35.992L79.7655 35.656L79.7655 10.246L76.1535 9.74201L76.1535 8.69201C78.5055 8.80401 80.6195 8.86001 82.4955 8.86001L84.5955 8.86001ZM126.07 8.94401C132.762 8.94401 136.108 11.142 136.108 15.538C136.108 17.33 135.534 18.828 134.386 20.032C133.238 21.208 131.572 21.922 129.388 22.174C132.216 22.706 134.274 23.532 135.562 24.652C136.85 25.772 137.494 27.354 137.494 29.398C137.494 31.974 136.402 33.892 134.218 35.152C132.034 36.384 129.192 37 125.692 37L114.31 37L114.31 35.992L117.376 35.572L117.376 10.33L113.806 9.91001L113.806 8.94401L126.07 8.94401ZM124.138 23.014L123.046 23.056L123.046 35.824C123.578 35.964 124.194 36.034 124.894 36.034C126.826 36.034 128.45 35.502 129.766 34.438C131.082 33.346 131.74 31.554 131.74 29.062C131.74 25.898 130.368 24.008 127.624 23.392C126.504 23.14 125.342 23.014 124.138 23.014ZM123.046 10.078L123.046 21.838L124.054 21.838C126.014 21.838 127.54 21.306 128.632 20.242C129.724 19.178 130.27 17.638 130.27 15.622C130.27 13.578 129.85 12.15 129.01 11.338C128.17 10.498 126.826 10.078 124.978 10.078L123.046 10.078ZM140.386 37L140.386 35.992L144.04 35.614L144.04 10.33L140.386 9.95201L140.386 8.94401L161.806 8.94401L161.806 14.908L160.462 14.908L158.824 10.456L149.626 10.33L149.626 21.628L157.774 21.628L159.076 18.52L160.252 18.52L160.252 26.332L159.034 26.332L157.774 23.14L149.626 23.14L149.626 35.656L160.084 35.53L162.268 30.742L163.612 30.742L163.108 37L140.386 37ZM194.912 37L182.564 37L182.564 35.992L185.966 35.614L182.102 25.954L172.652 25.954L169.292 34.9L173.03 35.992L173.03 37L164.252 37L164.252 35.992L167.444 34.9L177.608 8.94401L180.548 8.94401L191.678 35.614L194.912 35.992L194.912 37ZM181.472 24.4L177.356 14.194L173.24 24.4L181.472 24.4ZM216.397 8.94401L224.881 8.94401L224.881 9.95201L221.941 10.96L221.941 37L219.085 37L200.395 13.984L200.395 34.942L203.923 35.992L203.923 37L195.523 37L195.523 35.992L198.589 34.942L198.589 10.33L194.935 9.95201L194.935 8.94401L202.831 8.94401L219.631 29.86L219.631 10.918L216.397 9.95201L216.397 8.94401Z" fill="white"/>
</svg>
